<?xml version="1.0" encoding="utf-8" ?>
<svg baseProfile="full" height="896px" version="1.1" viewBox="0,0,1184,896" width="1184px" xmlns="http://www.w3.org/2000/svg" xmlns:ev="http://www.w3.org/2001/xml-events" xmlns:xlink="http://www.w3.org/1999/xlink"><defs /><g stroke="none"><path d="M 485.0,9.0 405.0,35.0 327.0,79.0 255.0,143.0 199.0,221.0 162.0,307.0 146.0,381.0 144.0,497.0 159.0,580.0 194.0,667.0 238.0,734.0 308.0,804.0 375.0,848.0 452.0,880.0 519.0,895.0 666.0,895.0 723.0,883.0 810.0,848.0 877.0,804.0 938.0,745.0 992.0,666.0 1024.0,589.0 1041.0,506.0 1042.0,401.0 1027.0,318.0 992.0,231.0 948.0,164.0 890.0,104.0 820.0,55.0 734.0,18.0 651.0,0.0 535.0,0.0 z" fill="rgb(170,185,202)" fill-opacity="0.934" /><path d="M 572.0,10.0 662.0,15.0 743.0,36.0 825.0,76.0 886.0,122.0 952.0,196.0 991.0,263.0 1022.0,354.0 1032.0,429.0 1027.0,517.0 1006.0,598.0 966.0,680.0 920.0,741.0 845.0,808.0 778.0,847.0 687.0,878.0 612.0,888.0 524.0,883.0 443.0,862.0 361.0,822.0 300.0,776.0 234.0,702.0 195.0,635.0 164.0,544.0 154.0,469.0 159.0,379.0 180.0,298.0 220.0,216.0 266.0,155.0 339.0,90.0 406.0,51.0 497.0,20.0 z" fill="rgb(181,197,215)" fill-opacity="0.995" /><path d="M 571.0,54.0 499.0,64.0 425.0,89.0 354.0,130.0 288.0,190.0 262.0,222.0 238.0,261.0 210.0,325.0 195.0,391.0 192.0,468.0 206.0,548.0 238.0,626.0 276.0,683.0 329.0,738.0 405.0,789.0 475.0,818.0 543.0,832.0 618.0,834.0 697.0,821.0 771.0,793.0 831.0,756.0 894.0,699.0 943.0,632.0 976.0,557.0 992.0,480.0 993.0,420.0 982.0,350.0 954.0,275.0 915.0,212.0 855.0,149.0 796.0,107.0 717.0,72.0 650.0,57.0 z" fill="rgb(178,192,210)" fill-opacity="1.000" /><path d="M 579.0,60.0 638.0,62.0 727.0,82.0 800.0,116.0 863.0,161.0 914.0,219.0 953.0,285.0 979.0,360.0 987.0,419.0 986.0,482.0 979.0,527.0 967.0,567.0 942.0,625.0 880.0,710.0 803.0,771.0 750.0,798.0 668.0,822.0 601.0,829.0 520.0,823.0 445.0,802.0 397.0,780.0 335.0,738.0 268.0,667.0 233.0,605.0 216.0,563.0 204.0,515.0 197.0,432.0 204.0,368.0 230.0,288.0 248.0,250.0 307.0,176.0 360.0,132.0 435.0,91.0 504.0,69.0 z" fill="rgb(179,193,210)" fill-opacity="1.000" /><path d="M 568.0,68.0 484.0,82.0 421.0,108.0 366.0,140.0 299.0,202.0 258.0,257.0 221.0,339.0 207.0,417.0 207.0,469.0 222.0,552.0 240.0,597.0 286.0,671.0 342.0,730.0 415.0,777.0 488.0,806.0 552.0,818.0 637.0,818.0 723.0,798.0 793.0,765.0 854.0,717.0 895.0,675.0 923.0,635.0 958.0,563.0 974.0,503.0 978.0,419.0 967.0,353.0 938.0,276.0 896.0,211.0 851.0,166.0 786.0,118.0 702.0,82.0 628.0,69.0 z" fill="rgb(181,194,210)" fill-opacity="1.000" /><path d="M 588.0,74.0 652.0,78.0 723.0,96.0 796.0,131.0 850.0,172.0 894.0,218.0 929.0,271.0 958.0,341.0 972.0,414.0 971.0,480.0 957.0,548.0 922.0,626.0 880.0,684.0 822.0,737.0 748.0,781.0 685.0,803.0 602.0,814.0 530.0,809.0 461.0,791.0 394.0,759.0 341.0,720.0 297.0,675.0 258.0,619.0 229.0,552.0 213.0,468.0 215.0,396.0 231.0,327.0 265.0,255.0 313.0,193.0 368.0,145.0 449.0,101.0 524.0,80.0 z" fill="rgb(183,195,210)" fill-opacity="1.000" /><path d="M 891.0,489.0 891.0,495.0 892.0,502.0 895.0,513.0 898.0,519.0 901.0,522.0 904.0,523.0 912.0,523.0 916.0,522.0 918.0,520.0 915.0,508.0 911.0,501.0 906.0,497.0 903.0,496.0 901.0,494.0 898.0,493.0 896.0,491.0 z" fill="rgb(30,58,99)" fill-opacity="1.000" /><path d="M 612.0,519.0 609.0,515.0 599.0,508.0 554.0,489.0 535.0,484.0 508.0,484.0 483.0,489.0 463.0,496.0 434.0,511.0 397.0,533.0 377.0,543.0 357.0,550.0 315.0,558.0 265.0,559.0 279.0,563.0 307.0,566.0 345.0,566.0 367.0,564.0 398.0,559.0 426.0,552.0 471.0,537.0 483.0,531.0 509.0,522.0 548.0,512.0 577.0,511.0 596.0,514.0 z" fill="rgb(16,33,61)" fill-opacity="1.000" /><path d="M 602.0,472.0 611.0,493.0 617.0,502.0 633.0,519.0 655.0,534.0 674.0,542.0 701.0,545.0 778.0,544.0 796.0,546.0 815.0,552.0 838.0,568.0 853.0,572.0 874.0,572.0 902.0,566.0 887.0,566.0 864.0,562.0 845.0,551.0 811.0,535.0 762.0,519.0 725.0,513.0 673.0,512.0 655.0,509.0 646.0,506.0 629.0,497.0 z" fill="rgb(18,40,72)" fill-opacity="1.000" /><path d="M 819.0,421.0 820.0,427.0 825.0,439.0 830.0,446.0 842.0,457.0 854.0,463.0 859.0,464.0 870.0,469.0 886.0,473.0 889.0,475.0 897.0,477.0 904.0,481.0 906.0,481.0 916.0,487.0 928.0,497.0 929.0,492.0 926.0,483.0 921.0,474.0 913.0,466.0 902.0,460.0 883.0,455.0 879.0,455.0 863.0,451.0 858.0,448.0 856.0,448.0 846.0,443.0 844.0,441.0 835.0,436.0 z" fill="rgb(24,53,91)" fill-opacity="1.000" /><path d="M 740.0,393.0 741.0,398.0 743.0,401.0 743.0,403.0 747.0,410.0 747.0,412.0 751.0,419.0 755.0,423.0 761.0,427.0 767.0,429.0 775.0,430.0 785.0,430.0 787.0,429.0 786.0,422.0 780.0,410.0 776.0,404.0 771.0,400.0 763.0,396.0 747.0,393.0 z" fill="rgb(22,45,78)" fill-opacity="1.000" /><path d="M 680.0,334.0 688.0,346.0 693.0,351.0 702.0,357.0 719.0,365.0 735.0,370.0 741.0,371.0 745.0,373.0 752.0,374.0 758.0,377.0 761.0,377.0 767.0,380.0 769.0,380.0 785.0,388.0 800.0,399.0 800.0,393.0 793.0,377.0 784.0,368.0 776.0,364.0 763.0,360.0 734.0,357.0 718.0,353.0 707.0,348.0 705.0,348.0 699.0,345.0 697.0,343.0 684.0,337.0 z" fill="rgb(26,55,95)" fill-opacity="1.000" /><path d="M 655.0,329.0 592.0,321.0 518.0,320.0 357.0,356.0 308.0,354.0 270.0,344.0 289.0,363.0 313.0,376.0 346.0,384.0 382.0,386.0 364.0,396.0 325.0,405.0 287.0,403.0 263.0,393.0 276.0,411.0 298.0,425.0 315.0,430.0 372.0,434.0 338.0,457.0 296.0,472.0 259.0,474.0 228.0,466.0 243.0,482.0 269.0,491.0 340.0,492.0 298.0,503.0 265.0,503.0 240.0,497.0 248.0,506.0 273.0,519.0 323.0,532.0 370.0,529.0 500.0,462.0 588.0,434.0 641.0,425.0 597.0,420.0 559.0,421.0 449.0,445.0 447.0,442.0 505.0,421.0 587.0,401.0 513.0,398.0 465.0,405.0 464.0,401.0 532.0,381.0 620.0,365.0 548.0,358.0 496.0,360.0 497.0,357.0 593.0,336.0 z" fill="rgb(10,22,42)" fill-opacity="1.000" /><path d="M 376.0,496.0 373.0,499.0 370.0,499.0 368.0,502.0 365.0,502.0 363.0,501.0 359.0,502.0 357.0,500.0 358.0,497.0 361.0,496.0 364.0,499.0 365.0,496.0 368.0,497.0 371.0,495.0 z" fill="rgb(0,1,7)" fill-opacity="1.000" /><path d="M 365.0,475.0 367.0,478.0 369.0,479.0 365.0,484.0 359.0,488.0 358.0,484.0 356.0,482.0 358.0,479.0 361.0,476.0 362.0,476.0 363.0,475.0 z" fill="rgb(0,0,3)" fill-opacity="1.000" /><path d="M 445.0,457.0 444.0,460.0 442.0,462.0 440.0,461.0 442.0,464.0 439.0,466.0 436.0,464.0 429.0,467.0 426.0,466.0 428.0,464.0 430.0,463.0 434.0,463.0 436.0,458.0 439.0,456.0 441.0,456.0 443.0,455.0 z" fill="rgb(1,1,7)" fill-opacity="1.000" /><path d="M 467.0,369.0 463.0,371.0 466.0,373.0 465.0,376.0 452.0,391.0 451.0,412.0 452.0,416.0 456.0,418.0 453.0,421.0 451.0,419.0 451.0,424.0 449.0,426.0 447.0,423.0 436.0,432.0 436.0,448.0 439.0,449.0 439.0,452.0 436.0,455.0 433.0,453.0 416.0,469.0 413.0,470.0 411.0,468.0 411.0,472.0 403.0,477.0 402.0,473.0 399.0,478.0 394.0,479.0 374.0,490.0 372.0,488.0 374.0,484.0 373.0,475.0 378.0,472.0 389.0,472.0 388.0,470.0 390.0,468.0 383.0,465.0 381.0,461.0 382.0,467.0 380.0,469.0 376.0,468.0 380.0,458.0 389.0,457.0 388.0,454.0 392.0,453.0 391.0,455.0 396.0,461.0 398.0,467.0 393.0,472.0 395.0,470.0 400.0,471.0 403.0,468.0 407.0,468.0 404.0,464.0 410.0,455.0 404.0,449.0 403.0,445.0 389.0,450.0 385.0,449.0 389.0,438.0 393.0,437.0 388.0,434.0 390.0,430.0 391.0,432.0 392.0,430.0 390.0,429.0 391.0,425.0 393.0,424.0 395.0,426.0 398.0,420.0 401.0,418.0 396.0,418.0 395.0,416.0 387.0,424.0 386.0,421.0 388.0,418.0 386.0,420.0 385.0,416.0 397.0,402.0 399.0,384.0 403.0,380.0 407.0,379.0 410.0,374.0 417.0,373.0 420.0,376.0 416.0,382.0 420.0,388.0 418.0,394.0 422.0,393.0 421.0,390.0 425.0,391.0 427.0,394.0 421.0,400.0 418.0,398.0 415.0,401.0 414.0,397.0 408.0,399.0 414.0,400.0 412.0,402.0 413.0,406.0 411.0,408.0 408.0,406.0 409.0,409.0 412.0,408.0 414.0,410.0 420.0,407.0 419.0,404.0 424.0,399.0 427.0,400.0 427.0,395.0 430.0,393.0 431.0,398.0 434.0,400.0 439.0,400.0 440.0,405.0 438.0,407.0 437.0,405.0 428.0,406.0 428.0,409.0 431.0,409.0 432.0,413.0 434.0,412.0 439.0,416.0 437.0,420.0 437.0,418.0 442.0,416.0 442.0,419.0 446.0,415.0 446.0,403.0 448.0,401.0 448.0,397.0 446.0,393.0 444.0,398.0 440.0,395.0 441.0,392.0 437.0,391.0 435.0,393.0 431.0,389.0 436.0,388.0 436.0,386.0 431.0,386.0 429.0,389.0 427.0,383.0 432.0,377.0 432.0,369.0 454.0,369.0 455.0,367.0 z" fill="rgb(0,0,2)" fill-opacity="1.000" /><path d="M 433.0,427.0 428.0,429.0 431.0,429.0 431.0,431.0 428.0,433.0 426.0,431.0 426.0,433.0 424.0,435.0 422.0,433.0 423.0,430.0 420.0,432.0 418.0,431.0 420.0,432.0 419.0,437.0 424.0,439.0 422.0,442.0 425.0,443.0 425.0,445.0 423.0,449.0 422.0,454.0 426.0,455.0 426.0,453.0 428.0,451.0 428.0,449.0 426.0,447.0 429.0,445.0 430.0,440.0 432.0,439.0 433.0,435.0 z" fill="rgb(0,0,1)" fill-opacity="1.000" /><path d="M 658.0,277.0 661.0,283.0 661.0,285.0 667.0,296.0 667.0,298.0 671.0,305.0 671.0,307.0 674.0,312.0 674.0,314.0 676.0,318.0 682.0,324.0 690.0,328.0 700.0,331.0 709.0,332.0 711.0,330.0 708.0,326.0 708.0,324.0 705.0,319.0 705.0,317.0 702.0,311.0 702.0,309.0 700.0,307.0 699.0,304.0 696.0,300.0 690.0,294.0 683.0,289.0 681.0,289.0 675.0,286.0 673.0,284.0 665.0,279.0 663.0,279.0 660.0,277.0 z" fill="rgb(22,48,84)" fill-opacity="1.000" /></g></svg>