<?xml version="1.0" encoding="utf-8" ?>
<svg baseProfile="tiny" height="896px" version="1.2" viewBox="0,0,1184,896" width="1184px" xmlns="http://www.w3.org/2000/svg" xmlns:ev="http://www.w3.org/2001/xml-events" xmlns:xlink="http://www.w3.org/1999/xlink"><defs /><g fill="black" stroke="none"><path d="M 709.00,330.50 701.00,330.50 700.00,329.50 697.00,329.50 696.00,328.50 690.00,327.50 682.00,323.50 675.50,318.00 671.50,310.00 671.50,308.00 668.50,303.00 668.50,301.00 664.50,294.00 664.50,292.00 660.50,285.00 660.50,283.00 657.50,277.00 658.00,276.50 660.00,276.50 670.00,281.50 675.00,285.50 681.00,287.50 683.00,289.50 687.00,291.50 697.50,302.00 701.50,309.00 701.50,311.00 703.50,314.00 703.50,316.00 706.50,322.00 706.50,324.00 709.50,328.00 z" fill="black" /><path d="M 228.50,468.00 229.00,466.50 232.00,466.50 233.00,467.50 235.00,467.50 239.00,469.50 243.00,469.50 244.00,470.50 248.00,470.50 249.00,471.50 255.00,471.50 256.00,472.50 282.00,472.50 283.00,471.50 291.00,471.50 292.00,470.50 297.00,470.50 298.00,469.50 301.00,469.50 302.00,468.50 305.00,468.50 306.00,467.50 313.00,466.50 314.00,465.50 319.00,464.50 322.00,462.50 324.00,462.50 327.00,460.50 329.00,460.50 333.00,458.50 335.00,456.50 349.00,449.50 351.00,447.50 352.00,447.50 354.00,445.50 361.00,441.50 369.50,434.00 367.00,433.50 366.00,432.50 337.00,432.50 336.00,431.50 327.00,431.50 326.00,430.50 315.00,429.50 314.00,428.50 311.00,428.50 310.00,427.50 307.00,427.50 306.00,426.50 298.00,424.50 290.00,420.50 288.00,418.50 285.00,417.50 283.00,415.50 279.00,413.50 268.50,403.00 266.50,399.00 263.50,396.00 264.00,393.50 272.00,397.50 274.00,397.50 275.00,398.50 277.00,398.50 281.00,400.50 284.00,400.50 285.00,401.50 289.00,401.50 290.00,402.50 297.00,402.50 298.00,403.50 327.00,403.50 328.00,402.50 335.00,402.50 336.00,401.50 340.00,401.50 341.00,400.50 344.00,400.50 345.00,399.50 353.00,398.50 354.00,397.50 362.00,395.50 378.00,387.50 379.50,386.00 378.00,384.50 359.00,384.50 358.00,383.50 347.00,383.50 346.00,382.50 340.00,382.50 339.00,381.50 334.00,381.50 333.00,380.50 324.00,379.50 318.00,376.50 313.00,375.50 310.00,373.50 308.00,373.50 298.00,368.50 296.00,366.50 293.00,365.50 287.00,360.50 286.00,360.50 275.50,351.00 275.50,350.00 271.50,346.00 270.50,344.00 271.00,343.50 275.00,344.50 276.00,345.50 278.00,345.50 279.00,346.50 286.00,347.50 290.00,349.50 293.00,349.50 294.00,350.50 299.00,350.50 300.00,351.50 304.00,351.50 305.00,352.50 312.00,352.50 313.00,353.50 324.00,353.50 325.00,354.50 358.00,354.50 359.00,353.50 364.00,353.50 365.00,352.50 370.00,352.50 371.00,351.50 380.00,350.50 381.00,349.50 384.00,349.50 385.00,348.50 392.00,347.50 396.00,345.50 399.00,345.50 403.00,343.50 407.00,343.50 411.00,341.50 418.00,340.50 422.00,338.50 425.00,338.50 426.00,337.50 429.00,337.50 430.00,336.50 433.00,336.50 434.00,335.50 437.00,335.50 438.00,334.50 441.00,334.50 442.00,333.50 445.00,333.50 446.00,332.50 450.00,332.50 451.00,331.50 454.00,331.50 455.00,330.50 459.00,330.50 463.00,328.50 471.00,327.50 472.00,326.50 475.00,326.50 476.00,325.50 480.00,325.50 481.00,324.50 484.00,324.50 485.00,323.50 495.00,322.50 496.00,321.50 501.00,321.50 502.00,320.50 509.00,320.50 510.00,319.50 521.00,319.50 522.00,318.50 565.00,318.50 566.00,319.50 587.00,319.50 588.00,320.50 598.00,320.50 599.00,321.50 609.00,321.50 610.00,322.50 619.00,322.50 620.00,323.50 627.00,323.50 628.00,324.50 633.00,324.50 634.00,325.50 638.00,325.50 639.00,326.50 643.00,326.50 644.00,327.50 649.50,328.00 648.00,329.50 641.00,329.50 640.00,330.50 632.00,330.50 631.00,331.50 623.00,331.50 622.00,332.50 614.00,332.50 613.00,333.50 606.00,333.50 605.00,334.50 591.00,335.50 590.00,336.50 581.00,337.50 580.00,338.50 577.00,338.50 576.00,339.50 572.00,339.50 571.00,340.50 561.00,341.50 560.00,342.50 557.00,342.50 556.00,343.50 553.00,343.50 552.00,344.50 549.00,344.50 548.00,345.50 543.00,345.50 542.00,346.50 539.00,346.50 535.00,348.50 532.00,348.50 531.00,349.50 528.00,349.50 527.00,350.50 523.00,350.50 522.00,351.50 519.00,351.50 518.00,352.50 514.00,352.50 513.00,353.50 510.00,353.50 506.00,355.50 503.00,355.50 502.00,356.50 499.00,356.50 497.00,357.50 497.00,358.50 516.00,358.50 517.00,357.50 568.00,357.50 569.00,358.50 580.00,358.50 581.00,359.50 589.00,359.50 590.00,360.50 596.00,360.50 597.00,361.50 604.00,361.50 605.00,362.50 610.00,362.50 611.00,363.50 615.50,364.00 614.00,365.50 608.00,365.50 607.00,366.50 601.00,366.50 600.00,367.50 595.00,367.50 594.00,368.50 588.00,368.50 587.00,369.50 583.00,369.50 582.00,370.50 578.00,370.50 577.00,371.50 573.00,371.50 572.00,372.50 567.00,372.50 566.00,373.50 562.00,373.50 561.00,374.50 558.00,374.50 557.00,375.50 553.00,375.50 552.00,376.50 549.00,376.50 548.00,377.50 545.00,377.50 544.00,378.50 535.00,379.50 534.00,380.50 531.00,380.50 530.00,381.50 527.00,381.50 526.00,382.50 523.00,382.50 522.00,383.50 518.00,383.50 514.00,385.50 511.00,385.50 510.00,386.50 508.00,386.50 504.00,388.50 501.00,388.50 497.00,390.50 494.00,390.50 493.00,391.50 491.00,391.50 490.00,392.50 488.00,392.50 487.00,393.50 485.00,393.50 484.00,394.50 482.00,394.50 481.00,395.50 479.00,395.50 478.00,396.50 470.00,398.50 466.00,400.50 464.50,402.00 465.00,402.50 468.00,402.50 469.00,401.50 477.00,401.50 478.00,400.50 483.00,400.50 484.00,399.50 502.00,398.50 503.00,397.50 518.00,397.50 519.00,396.50 527.00,396.50 528.00,397.50 556.00,397.50 557.00,398.50 568.00,398.50 569.00,399.50 576.00,399.50 577.00,400.50 582.50,401.00 579.00,401.50 578.00,402.50 575.00,402.50 574.00,403.50 571.00,403.50 570.00,404.50 567.00,404.50 566.00,405.50 563.00,405.50 562.00,406.50 559.00,406.50 558.00,407.50 555.00,407.50 554.00,408.50 551.00,408.50 550.00,409.50 546.00,409.50 545.00,410.50 538.00,411.50 537.00,412.50 535.00,412.50 531.00,414.50 523.00,415.50 522.00,416.50 516.00,417.50 512.00,419.50 505.00,420.50 504.00,421.50 502.00,421.50 501.00,422.50 499.00,422.50 498.00,423.50 496.00,423.50 495.00,424.50 493.00,424.50 492.00,425.50 490.00,425.50 489.00,426.50 487.00,426.50 486.00,427.50 478.00,429.50 475.00,431.50 467.00,433.50 464.00,435.50 459.00,436.50 454.00,439.50 452.00,439.50 449.50,442.00 451.00,442.50 452.00,441.50 457.00,441.50 458.00,440.50 461.00,440.50 462.00,439.50 464.00,439.50 468.00,437.50 471.00,437.50 472.00,436.50 475.00,436.50 479.00,434.50 483.00,434.50 484.00,433.50 487.00,433.50 488.00,432.50 491.00,432.50 492.00,431.50 495.00,431.50 496.00,430.50 499.00,430.50 500.00,429.50 505.00,429.50 506.00,428.50 510.00,428.50 511.00,427.50 515.00,427.50 516.00,426.50 520.00,426.50 521.00,425.50 527.00,425.50 528.00,424.50 533.00,424.50 534.00,423.50 539.00,423.50 540.00,422.50 545.00,422.50 546.00,421.50 561.00,420.50 562.00,419.50 576.00,419.50 577.00,418.50 605.00,419.50 606.00,420.50 615.00,420.50 616.00,421.50 622.00,421.50 623.00,422.50 628.00,422.50 629.00,423.50 635.00,423.50 636.50,425.00 636.00,425.50 621.00,426.50 620.00,427.50 610.00,428.50 609.00,429.50 605.00,429.50 604.00,430.50 601.00,430.50 600.00,431.50 596.00,431.50 595.00,432.50 587.00,433.50 583.00,435.50 580.00,435.50 576.00,437.50 569.00,438.50 568.00,439.50 562.00,440.50 558.00,442.50 555.00,442.50 554.00,443.50 552.00,443.50 548.00,445.50 545.00,445.50 544.00,446.50 542.00,446.50 541.00,447.50 533.00,449.50 530.00,451.50 527.00,451.50 526.00,452.50 518.00,454.50 510.00,458.50 502.00,460.50 490.00,466.50 488.00,466.50 483.00,469.50 481.00,469.50 477.00,471.50 475.00,473.50 471.00,474.50 439.00,490.50 437.00,492.50 428.00,496.50 426.00,498.50 418.00,502.50 413.00,506.50 404.00,510.50 402.00,512.50 400.00,512.50 390.00,519.50 386.00,521.50 384.00,521.50 377.00,525.50 375.00,525.50 369.00,528.50 361.00,529.50 360.00,530.50 355.00,530.50 354.00,531.50 324.00,531.50 323.00,530.50 316.00,530.50 315.00,529.50 309.00,529.50 308.00,528.50 304.00,528.50 303.00,527.50 300.00,527.50 299.00,526.50 296.00,526.50 295.00,525.50 292.00,525.50 288.00,523.50 285.00,523.50 284.00,522.50 279.00,521.50 251.00,507.50 249.00,505.50 248.00,505.50 240.50,498.00 241.00,496.50 242.00,497.50 245.00,497.50 249.00,499.50 253.00,499.50 254.00,500.50 260.00,500.50 261.00,501.50 298.00,501.50 299.00,500.50 312.00,499.50 313.00,498.50 317.00,498.50 318.00,497.50 326.00,496.50 327.00,495.50 335.00,493.50 335.50,492.00 334.00,491.50 333.00,492.50 318.00,492.50 317.00,493.50 296.00,493.50 295.00,492.50 283.00,492.50 282.00,491.50 270.00,490.50 269.00,489.50 266.00,489.50 265.00,488.50 258.00,487.50 257.00,486.50 249.00,484.50 243.00,481.50 237.00,476.50 236.00,476.50 z" fill="black" /><path d="M 799.50,396.00 797.00,396.50 783.00,386.50 773.00,381.50 771.00,381.50 762.00,376.50 759.00,376.50 758.00,375.50 756.00,375.50 752.00,373.50 745.00,372.50 739.00,369.50 736.00,369.50 735.00,368.50 728.00,367.50 727.00,366.50 719.00,364.50 716.00,362.50 714.00,362.50 707.00,358.50 705.00,358.50 703.00,356.50 700.00,355.50 698.00,353.50 694.00,351.50 686.50,344.00 686.50,343.00 682.50,339.00 681.50,336.00 683.00,335.50 687.00,338.50 691.00,340.50 693.00,340.50 697.00,343.50 703.00,346.50 705.00,346.50 710.00,349.50 712.00,349.50 716.00,351.50 719.00,351.50 720.00,352.50 726.00,353.50 727.00,354.50 730.00,354.50 731.00,355.50 737.00,355.50 738.00,356.50 744.00,356.50 745.00,357.50 751.00,357.50 752.00,358.50 760.00,358.50 761.00,359.50 765.00,359.50 766.00,360.50 774.00,362.50 777.00,364.50 779.00,364.50 781.00,366.50 784.00,367.50 790.50,374.00 790.50,375.00 792.50,377.00 795.50,383.00 795.50,385.00 797.50,388.00 z" fill="black" /><path d="M 786.50,428.00 767.00,428.50 766.00,427.50 761.00,426.50 757.00,423.50 756.00,423.50 748.50,416.00 743.50,406.00 743.50,404.00 741.50,401.00 739.50,393.00 750.00,392.50 751.00,393.50 760.00,394.50 772.00,400.50 778.50,408.00 785.50,422.00 z" fill="black" /><path d="M 927.50,495.00 927.00,495.50 924.00,492.50 923.00,492.50 920.00,489.50 919.00,489.50 911.00,483.50 897.00,476.50 889.00,474.50 886.00,472.50 884.00,472.50 880.00,470.50 877.00,470.50 873.00,468.50 867.00,467.50 864.00,465.50 856.00,463.50 842.00,456.50 840.00,454.50 839.00,454.50 827.50,443.00 824.50,437.00 822.50,435.00 821.50,430.00 819.50,427.00 819.50,423.00 820.00,422.50 828.00,430.50 829.00,430.50 832.00,433.50 836.00,435.50 839.00,438.50 846.00,441.50 848.00,443.50 854.00,446.50 856.00,446.50 859.00,448.50 861.00,448.50 865.00,450.50 868.00,450.50 869.00,451.50 872.00,451.50 873.00,452.50 876.00,452.50 877.00,453.50 881.00,453.50 882.00,454.50 886.00,454.50 887.00,455.50 894.00,456.50 895.00,457.50 900.00,458.50 910.00,463.50 913.00,466.50 914.00,466.50 921.50,475.00 924.50,481.00 924.50,483.00 926.50,486.00 926.50,489.00 927.50,490.00 z" fill="black" /><path d="M 895.50,566.00 893.00,567.50 890.00,567.50 889.00,568.50 884.00,568.50 883.00,569.50 879.00,569.50 878.00,570.50 869.00,570.50 868.00,571.50 854.00,571.50 853.00,570.50 848.00,570.50 847.00,569.50 843.00,569.50 842.00,568.50 840.00,568.50 836.00,566.50 834.00,564.50 831.00,563.50 829.00,561.50 826.00,560.50 824.00,558.50 820.00,556.50 816.00,552.50 810.00,549.50 808.00,549.50 804.00,547.50 801.00,547.50 800.00,546.50 797.00,546.50 796.00,545.50 791.00,545.50 790.00,544.50 782.00,544.50 781.00,543.50 684.00,543.50 683.00,542.50 678.00,542.50 677.00,541.50 670.00,540.50 669.00,539.50 667.00,539.50 664.00,537.50 660.00,536.50 658.00,534.50 648.00,529.50 646.00,527.50 639.00,523.50 636.00,520.50 635.00,520.50 617.50,503.00 617.50,502.00 614.50,499.00 614.50,498.00 612.50,496.00 611.50,493.00 609.50,491.00 607.50,487.00 607.50,485.00 604.50,480.00 604.50,478.00 602.50,475.00 602.50,473.00 603.00,472.50 610.00,480.50 611.00,480.50 614.00,483.50 615.00,483.50 625.00,493.50 626.00,493.50 629.00,496.50 634.00,498.50 636.00,500.50 644.00,504.50 646.00,504.50 647.00,505.50 649.00,505.50 653.00,507.50 661.00,508.50 662.00,509.50 669.00,509.50 670.00,510.50 690.00,510.50 691.00,511.50 720.00,511.50 721.00,512.50 732.00,512.50 733.00,513.50 746.00,514.50 747.00,515.50 751.00,515.50 752.00,516.50 755.00,516.50 756.00,517.50 760.00,517.50 761.00,518.50 764.00,518.50 768.00,520.50 771.00,520.50 772.00,521.50 774.00,521.50 775.00,522.50 783.00,524.50 786.00,526.50 789.00,526.50 790.00,527.50 795.00,528.50 798.00,530.50 801.00,530.50 807.00,533.50 809.00,533.50 814.00,536.50 816.00,536.50 821.00,539.50 823.00,539.50 835.00,546.50 837.00,546.50 845.00,550.50 850.00,554.50 862.00,560.50 868.00,561.50 869.00,562.50 873.00,562.50 874.00,563.50 878.00,563.50 879.00,564.50 886.00,564.50 887.00,565.50 z" fill="black" /><path d="M 269.50,559.00 297.00,558.50 298.00,557.50 309.00,557.50 310.00,556.50 318.00,556.50 319.00,555.50 324.00,555.50 325.00,554.50 331.00,554.50 332.00,553.50 341.00,552.50 342.00,551.50 345.00,551.50 346.00,550.50 349.00,550.50 350.00,549.50 354.00,549.50 358.00,547.50 361.00,547.50 362.00,546.50 370.00,544.50 373.00,542.50 375.00,542.50 380.00,539.50 382.00,539.50 392.00,534.50 394.00,532.50 407.00,526.50 414.00,521.50 426.00,515.50 428.00,513.50 431.00,512.50 438.00,507.50 464.00,494.50 469.00,493.50 477.00,489.50 483.00,488.50 487.00,486.50 490.00,486.50 491.00,485.50 496.00,485.50 497.00,484.50 502.00,484.50 503.00,483.50 509.00,483.50 510.00,482.50 533.00,482.50 534.00,483.50 539.00,483.50 540.00,484.50 543.00,484.50 546.00,486.50 549.00,486.50 550.00,487.50 555.00,488.50 563.00,492.50 571.00,494.50 578.00,498.50 580.00,498.50 585.00,501.50 587.00,501.50 597.00,506.50 599.00,508.50 606.00,512.50 609.50,516.00 607.00,516.50 606.00,515.50 603.00,515.50 602.00,514.50 598.00,514.50 597.00,513.50 593.00,513.50 592.00,512.50 587.00,512.50 586.00,511.50 580.00,511.50 579.00,510.50 557.00,510.50 556.00,511.50 547.00,511.50 546.00,512.50 542.00,512.50 541.00,513.50 538.00,513.50 537.00,514.50 534.00,514.50 533.00,515.50 526.00,516.50 525.00,517.50 519.00,518.50 515.00,520.50 512.00,520.50 511.00,521.50 506.00,522.50 503.00,524.50 497.00,525.50 496.00,526.50 491.00,527.50 488.00,529.50 480.00,531.50 473.00,535.50 471.00,535.50 470.00,536.50 468.00,536.50 467.00,537.50 465.00,537.50 464.00,538.50 456.00,540.50 453.00,542.50 451.00,542.50 450.00,543.50 448.00,543.50 447.00,544.50 445.00,544.50 444.00,545.50 442.00,545.50 441.00,546.50 439.00,546.50 438.00,547.50 436.00,547.50 435.00,548.50 433.00,548.50 429.00,550.50 426.00,550.50 422.00,552.50 419.00,552.50 418.00,553.50 415.00,553.50 414.00,554.50 411.00,554.50 410.00,555.50 406.00,555.50 405.00,556.50 402.00,556.50 401.00,557.50 398.00,557.50 397.00,558.50 392.00,558.50 391.00,559.50 386.00,559.50 385.00,560.50 380.00,560.50 379.00,561.50 373.00,561.50 372.00,562.50 366.00,562.50 365.00,563.50 354.00,563.50 353.00,564.50 339.00,564.50 338.00,565.50 336.00,564.50 333.00,564.50 332.00,565.50 313.00,565.50 312.00,564.50 299.00,564.50 298.00,563.50 291.00,563.50 290.00,562.50 282.00,562.50 281.00,561.50 276.00,561.50 275.00,560.50 272.00,560.50 z" fill="black" /><path d="M 916.00,520.50 914.00,521.50 911.00,521.50 910.00,522.50 905.00,522.50 904.00,521.50 901.00,521.50 897.50,519.00 897.50,518.00 894.50,514.00 894.50,512.00 892.50,508.00 892.50,505.00 891.50,504.00 891.50,498.00 890.50,497.00 891.00,488.50 901.00,493.50 903.00,495.50 906.00,496.50 911.50,502.00 914.50,508.00 914.50,511.00 915.50,512.00 915.50,515.00 916.50,516.00 z" fill="black" /><path d="M 0.00,886.50 1183.00,886.50 z" fill="black" /></g></svg>