<?xml version="1.0" encoding="utf-8" ?>
<svg baseProfile="tiny" height="896px" version="1.2" viewBox="0,0,1184,896" width="1184px" xmlns="http://www.w3.org/2000/svg" xmlns:ev="http://www.w3.org/2001/xml-events" xmlns:xlink="http://www.w3.org/1999/xlink"><defs /><g fill="black" stroke="none"><path d="M 612.00,886.50 613.00,885.50 628.00,885.50 629.00,884.50 647.00,883.50 648.00,882.50 661.00,881.50 662.00,880.50 667.00,880.50 668.00,879.50 672.00,879.50 673.00,878.50 677.00,878.50 678.00,877.50 687.00,876.50 688.00,875.50 691.00,875.50 692.00,874.50 695.00,874.50 696.00,873.50 699.00,873.50 700.00,872.50 703.00,872.50 704.00,871.50 711.00,870.50 712.00,869.50 714.00,869.50 718.00,867.50 721.00,867.50 722.00,866.50 724.00,866.50 725.00,865.50 727.00,865.50 728.00,864.50 730.00,864.50 731.00,863.50 733.00,863.50 734.00,862.50 742.00,860.50 745.00,858.50 750.00,857.50 760.00,852.50 762.00,852.50 765.00,850.50 767.00,850.50 776.00,845.50 778.00,845.50 798.00,835.50 800.00,833.50 807.00,830.50 809.00,828.50 814.00,826.50 816.00,824.50 824.00,820.50 826.00,818.50 827.00,818.50 829.00,816.50 830.00,816.50 832.00,814.50 833.00,814.50 835.00,812.50 836.00,812.50 838.00,810.50 845.00,806.50 848.00,803.50 849.00,803.50 852.00,800.50 853.00,800.50 856.00,797.50 857.00,797.50 860.00,794.50 861.00,794.50 864.00,791.50 865.00,791.50 870.00,786.50 871.00,786.50 876.00,781.50 877.00,781.50 884.00,774.50 885.00,774.50 918.50,741.00 918.50,740.00 925.50,733.00 925.50,732.00 935.50,721.00 935.50,720.00 950.50,701.00 950.50,700.00 964.50,680.00 965.50,677.00 970.50,670.00 972.50,665.00 974.50,663.00 977.50,656.00 979.50,654.00 989.50,634.00 989.50,632.00 994.50,623.00 994.50,621.00 996.50,618.00 996.50,616.00 999.50,611.00 999.50,609.00 1001.50,606.00 1002.50,601.00 1004.50,598.00 1004.50,596.00 1005.50,595.00 1005.50,593.00 1006.50,592.00 1006.50,590.00 1007.50,589.00 1007.50,587.00 1008.50,586.00 1008.50,584.00 1009.50,583.00 1009.50,581.00 1011.50,577.00 1011.50,574.00 1012.50,573.00 1012.50,571.00 1014.50,567.00 1014.50,564.00 1015.50,563.00 1015.50,560.00 1016.50,559.00 1016.50,556.00 1017.50,555.00 1017.50,552.00 1018.50,551.00 1018.50,548.00 1019.50,547.00 1019.50,544.00 1020.50,543.00 1020.50,539.00 1021.50,538.00 1021.50,534.00 1022.50,533.00 1022.50,529.00 1023.50,528.00 1023.50,524.00 1024.50,523.00 1024.50,518.00 1025.50,517.00 1025.50,511.00 1026.50,510.00 1026.50,504.00 1027.50,503.00 1027.50,495.00 1028.50,494.00 1028.50,485.00 1029.50,484.00 1029.50,469.00 1030.50,468.00 1030.50,428.00 1029.50,427.00 1029.50,412.00 1028.50,411.00 1027.50,393.00 1026.50,392.00 1025.50,379.00 1024.50,378.00 1024.50,373.00 1023.50,372.00 1023.50,368.00 1022.50,367.00 1022.50,363.00 1021.50,362.00 1020.50,353.00 1019.50,352.00 1019.50,349.00 1018.50,348.00 1018.50,345.00 1017.50,344.00 1017.50,341.00 1016.50,340.00 1016.50,337.00 1015.50,336.00 1014.50,329.00 1013.50,328.00 1013.50,326.00 1011.50,322.00 1011.50,319.00 1010.50,318.00 1010.50,316.00 1009.50,315.00 1009.50,313.00 1008.50,312.00 1008.50,310.00 1007.50,309.00 1007.50,307.00 1006.50,306.00 1004.50,298.00 1002.50,295.00 1001.50,290.00 996.50,280.00 996.50,278.00 994.50,275.00 994.50,273.00 989.50,264.00 989.50,262.00 979.50,242.00 977.50,240.00 974.50,233.00 972.50,231.00 970.50,226.00 968.50,224.00 964.50,216.00 962.50,214.00 962.50,213.00 960.50,211.00 960.50,210.00 958.50,208.00 958.50,207.00 956.50,205.00 956.50,204.00 954.50,202.00 950.50,195.00 947.50,192.00 947.50,191.00 944.50,188.00 944.50,187.00 941.50,184.00 941.50,183.00 938.50,180.00 938.50,179.00 935.50,176.00 935.50,175.00 930.50,170.00 930.50,169.00 925.50,164.00 925.50,163.00 918.50,156.00 918.50,155.00 885.00,121.50 884.00,121.50 877.00,114.50 876.00,114.50 865.00,104.50 864.00,104.50 845.00,89.50 844.00,89.50 824.00,75.50 821.00,74.50 814.00,69.50 809.00,67.50 807.00,65.50 800.00,62.50 798.00,60.50 778.00,50.50 776.00,50.50 767.00,45.50 765.00,45.50 762.00,43.50 760.00,43.50 755.00,40.50 753.00,40.50 750.00,38.50 745.00,37.50 742.00,35.50 740.00,35.50 739.00,34.50 737.00,34.50 736.00,33.50 734.00,33.50 733.00,32.50 731.00,32.50 730.00,31.50 728.00,31.50 727.00,30.50 725.00,30.50 721.00,28.50 718.00,28.50 717.00,27.50 715.00,27.50 711.00,25.50 708.00,25.50 707.00,24.50 704.00,24.50 703.00,23.50 700.00,23.50 699.00,22.50 696.00,22.50 695.00,21.50 692.00,21.50 691.00,20.50 688.00,20.50 687.00,19.50 683.00,19.50 682.00,18.50 678.00,18.50 677.00,17.50 673.00,17.50 672.00,16.50 668.00,16.50 667.00,15.50 662.00,15.50 661.00,14.50 655.00,14.50 654.00,13.50 648.00,13.50 647.00,12.50 639.00,12.50 638.00,11.50 629.00,11.50 628.00,10.50 613.00,10.50 612.00,9.50 572.00,9.50 571.00,10.50 556.00,10.50 555.00,11.50 537.00,12.50 536.00,13.50 523.00,14.50 522.00,15.50 517.00,15.50 516.00,16.50 512.00,16.50 511.00,17.50 507.00,17.50 506.00,18.50 497.00,19.50 496.00,20.50 493.00,20.50 492.00,21.50 489.00,21.50 488.00,22.50 485.00,22.50 484.00,23.50 481.00,23.50 480.00,24.50 473.00,25.50 472.00,26.50 470.00,26.50 466.00,28.50 463.00,28.50 462.00,29.50 460.00,29.50 459.00,30.50 457.00,30.50 456.00,31.50 454.00,31.50 453.00,32.50 451.00,32.50 450.00,33.50 442.00,35.50 439.00,37.50 434.00,38.50 424.00,43.50 422.00,43.50 419.00,45.50 417.00,45.50 408.00,50.50 406.00,50.50 386.00,60.50 384.00,62.50 377.00,65.50 375.00,67.50 370.00,69.50 368.00,71.50 360.00,75.50 358.00,77.50 357.00,77.50 355.00,79.50 354.00,79.50 352.00,81.50 351.00,81.50 349.00,83.50 348.00,83.50 346.00,85.50 339.00,89.50 336.00,92.50 335.00,92.50 332.00,95.50 331.00,95.50 328.00,98.50 327.00,98.50 324.00,101.50 323.00,101.50 320.00,104.50 319.00,104.50 314.00,109.50 313.00,109.50 308.00,114.50 307.00,114.50 300.00,121.50 299.00,121.50 265.50,155.00 265.50,156.00 258.50,163.00 258.50,164.00 248.50,175.00 248.50,176.00 233.50,195.00 233.50,196.00 219.50,216.00 218.50,219.00 213.50,226.00 211.50,231.00 209.50,233.00 206.50,240.00 204.50,242.00 194.50,262.00 194.50,264.00 189.50,273.00 189.50,275.00 187.50,278.00 187.50,280.00 184.50,285.00 184.50,287.00 182.50,290.00 181.50,295.00 179.50,298.00 179.50,300.00 178.50,301.00 178.50,303.00 177.50,304.00 177.50,306.00 176.50,307.00 176.50,309.00 175.50,310.00 175.50,312.00 174.50,313.00 174.50,315.00 172.50,319.00 172.50,322.00 171.50,323.00 171.50,325.00 169.50,329.00 169.50,332.00 168.50,333.00 168.50,336.00 167.50,337.00 167.50,340.00 166.50,341.00 166.50,344.00 165.50,345.00 165.50,348.00 164.50,349.00 164.50,352.00 163.50,353.00 163.50,357.00 162.50,358.00 162.50,362.00 161.50,363.00 161.50,367.00 160.50,368.00 160.50,372.00 159.50,373.00 159.50,378.00 158.50,379.00 158.50,385.00 157.50,386.00 157.50,392.00 156.50,393.00 156.50,401.00 155.50,402.00 155.50,411.00 154.50,412.00 154.50,427.00 153.50,428.00 153.50,468.00 154.50,469.00 154.50,484.00 155.50,485.00 156.50,503.00 157.50,504.00 158.50,517.00 159.50,518.00 159.50,523.00 160.50,524.00 160.50,528.00 161.50,529.00 161.50,533.00 162.50,534.00 163.50,543.00 164.50,544.00 164.50,547.00 165.50,548.00 165.50,551.00 166.50,552.00 166.50,555.00 167.50,556.00 167.50,559.00 168.50,560.00 169.50,567.00 170.50,568.00 170.50,570.00 172.50,574.00 172.50,577.00 173.50,578.00 173.50,580.00 174.50,581.00 174.50,583.00 175.50,584.00 175.50,586.00 176.50,587.00 176.50,589.00 177.50,590.00 179.50,598.00 181.50,601.00 182.50,606.00 187.50,616.00 187.50,618.00 189.50,621.00 189.50,623.00 194.50,632.00 194.50,634.00 204.50,654.00 206.50,656.00 209.50,663.00 211.50,665.00 213.50,670.00 215.50,672.00 219.50,680.00 221.50,682.00 221.50,683.00 223.50,685.00 223.50,686.00 225.50,688.00 225.50,689.00 227.50,691.00 227.50,692.00 229.50,694.00 233.50,701.00 236.50,704.00 236.50,705.00 239.50,708.00 239.50,709.00 242.50,712.00 242.50,713.00 245.50,716.00 245.50,717.00 248.50,720.00 248.50,721.00 253.50,726.00 253.50,727.00 258.50,732.00 258.50,733.00 265.50,740.00 265.50,741.00 299.00,774.50 300.00,774.50 307.00,781.50 308.00,781.50 319.00,791.50 320.00,791.50 339.00,806.50 340.00,806.50 360.00,820.50 363.00,821.50 370.00,826.50 375.00,828.50 377.00,830.50 384.00,833.50 386.00,835.50 406.00,845.50 408.00,845.50 417.00,850.50 419.00,850.50 422.00,852.50 424.00,852.50 429.00,855.50 431.00,855.50 434.00,857.50 439.00,858.50 442.00,860.50 444.00,860.50 445.00,861.50 447.00,861.50 448.00,862.50 450.00,862.50 451.00,863.50 453.00,863.50 454.00,864.50 456.00,864.50 457.00,865.50 459.00,865.50 463.00,867.50 466.00,867.50 467.00,868.50 469.00,868.50 473.00,870.50 476.00,870.50 477.00,871.50 480.00,871.50 481.00,872.50 484.00,872.50 485.00,873.50 488.00,873.50 489.00,874.50 492.00,874.50 493.00,875.50 496.00,875.50 497.00,876.50 501.00,876.50 502.00,877.50 506.00,877.50 507.00,878.50 511.00,878.50 512.00,879.50 516.00,879.50 517.00,880.50 522.00,880.50 523.00,881.50 529.00,881.50 530.00,882.50 536.00,882.50 537.00,883.50 545.00,883.50 546.00,884.50 555.00,884.50 556.00,885.50 571.00,885.50 572.00,886.50 z" fill="black" /><path d="M 709.00,330.50 702.00,330.50 701.00,329.50 697.00,329.50 696.00,328.50 690.00,327.50 682.00,323.50 676.50,319.00 672.50,312.00 672.50,310.00 668.50,303.00 668.50,301.00 665.50,296.00 665.50,294.00 659.50,282.00 659.50,280.00 658.50,279.00 659.00,276.50 670.00,281.50 675.00,285.50 684.00,289.50 686.00,291.50 687.00,291.50 696.50,301.00 696.50,302.00 701.50,309.00 701.50,311.00 703.50,314.00 705.50,322.00 709.50,329.00 z" fill="black" /><path d="M 228.50,467.00 231.00,466.50 235.00,468.50 238.00,468.50 239.00,469.50 242.00,469.50 243.00,470.50 248.00,470.50 249.00,471.50 254.00,471.50 255.00,472.50 283.00,472.50 284.00,471.50 291.00,471.50 292.00,470.50 297.00,470.50 298.00,469.50 301.00,469.50 302.00,468.50 305.00,468.50 306.00,467.50 310.00,467.50 311.00,466.50 319.00,464.50 322.00,462.50 327.00,461.50 337.00,456.50 339.00,454.50 344.00,452.50 346.00,450.50 351.00,448.50 357.00,443.50 360.00,442.50 364.00,438.50 365.00,438.50 368.00,435.50 369.50,435.00 369.50,434.00 367.00,432.50 338.00,432.50 337.00,431.50 327.00,431.50 326.00,430.50 315.00,429.50 314.00,428.50 311.00,428.50 310.00,427.50 307.00,427.50 306.00,426.50 298.00,424.50 290.00,420.50 288.00,418.50 285.00,417.50 279.00,412.50 278.00,412.50 269.50,404.00 267.50,400.00 263.50,396.00 264.00,393.50 272.00,397.50 274.00,397.50 275.00,398.50 277.00,398.50 278.00,399.50 280.00,399.50 284.00,401.50 289.00,401.50 290.00,402.50 296.00,402.50 297.00,403.50 328.00,403.50 329.00,402.50 336.00,402.50 337.00,401.50 340.00,401.50 341.00,400.50 345.00,400.50 346.00,399.50 349.00,399.50 350.00,398.50 353.00,398.50 354.00,397.50 362.00,395.50 378.00,387.50 379.50,386.00 379.50,385.00 361.00,384.50 360.00,383.50 347.00,383.50 346.00,382.50 341.00,382.50 340.00,381.50 329.00,380.50 328.00,379.50 325.00,379.50 324.00,378.50 322.00,378.50 321.00,377.50 313.00,375.50 310.00,373.50 308.00,373.50 300.00,369.50 298.00,367.50 290.00,363.50 275.50,351.00 275.50,350.00 271.50,345.00 272.00,344.50 275.00,344.50 279.00,346.50 282.00,346.50 283.00,347.50 285.00,347.50 289.00,349.50 299.00,350.50 300.00,351.50 304.00,351.50 305.00,352.50 311.00,352.50 312.00,353.50 323.00,353.50 324.00,354.50 358.00,354.50 359.00,353.50 365.00,353.50 366.00,352.50 371.00,352.50 372.00,351.50 380.00,350.50 381.00,349.50 384.00,349.50 385.00,348.50 389.00,348.50 393.00,346.50 396.00,346.50 400.00,344.50 403.00,344.50 404.00,343.50 411.00,342.50 412.00,341.50 418.00,340.50 422.00,338.50 430.00,337.50 434.00,335.50 437.00,335.50 438.00,334.50 441.00,334.50 442.00,333.50 446.00,333.50 447.00,332.50 450.00,332.50 451.00,331.50 454.00,331.50 455.00,330.50 459.00,330.50 460.00,329.50 463.00,329.50 464.00,328.50 467.00,328.50 468.00,327.50 471.00,327.50 472.00,326.50 481.00,325.50 482.00,324.50 485.00,324.50 486.00,323.50 489.00,323.50 490.00,322.50 502.00,321.50 503.00,320.50 510.00,320.50 511.00,319.50 523.00,319.50 524.00,318.50 564.00,318.50 565.00,319.50 586.00,319.50 587.00,320.50 597.00,320.50 598.00,321.50 609.00,321.50 610.00,322.50 626.00,323.50 627.00,324.50 632.00,324.50 633.00,325.50 638.00,325.50 639.00,326.50 642.00,326.50 643.00,327.50 648.50,328.00 647.00,329.50 631.00,330.50 630.00,331.50 621.00,331.50 620.00,332.50 613.00,332.50 612.00,333.50 605.00,333.50 604.00,334.50 597.00,334.50 596.00,335.50 591.00,335.50 590.00,336.50 586.00,336.50 585.00,337.50 581.00,337.50 580.00,338.50 576.00,338.50 575.00,339.50 571.00,339.50 570.00,340.50 561.00,341.50 560.00,342.50 557.00,342.50 556.00,343.50 553.00,343.50 552.00,344.50 549.00,344.50 548.00,345.50 543.00,345.50 542.00,346.50 539.00,346.50 538.00,347.50 535.00,347.50 534.00,348.50 531.00,348.50 530.00,349.50 527.00,349.50 526.00,350.50 523.00,350.50 522.00,351.50 518.00,351.50 517.00,352.50 514.00,352.50 513.00,353.50 510.00,353.50 509.00,354.50 506.00,354.50 505.00,355.50 498.00,356.50 496.50,358.00 497.00,358.50 517.00,358.50 518.00,357.50 568.00,357.50 569.00,358.50 579.00,358.50 580.00,359.50 588.00,359.50 589.00,360.50 603.00,361.50 604.00,362.50 610.00,362.50 611.00,363.50 615.50,364.00 614.00,365.50 607.00,365.50 606.00,366.50 601.00,366.50 600.00,367.50 595.00,367.50 594.00,368.50 588.00,368.50 587.00,369.50 583.00,369.50 582.00,370.50 578.00,370.50 577.00,371.50 572.00,371.50 571.00,372.50 567.00,372.50 566.00,373.50 562.00,373.50 561.00,374.50 552.00,375.50 551.00,376.50 548.00,376.50 544.00,378.50 535.00,379.50 534.00,380.50 531.00,380.50 530.00,381.50 526.00,381.50 522.00,383.50 518.00,383.50 517.00,384.50 514.00,384.50 510.00,386.50 507.00,386.50 504.00,388.50 501.00,388.50 500.00,389.50 497.00,389.50 493.00,391.50 490.00,391.50 489.00,392.50 484.00,393.50 481.00,395.50 479.00,395.50 478.00,396.50 470.00,398.50 466.00,400.50 464.50,402.00 465.00,402.50 469.00,402.50 470.00,401.50 477.00,401.50 478.00,400.50 484.00,400.50 485.00,399.50 493.00,399.50 494.00,398.50 503.00,398.50 504.00,397.50 521.00,397.50 522.00,396.50 525.00,396.50 526.00,397.50 552.00,397.50 553.00,398.50 567.00,398.50 568.00,399.50 575.00,399.50 576.00,400.50 581.50,401.00 579.00,401.50 578.00,402.50 574.00,402.50 570.00,404.50 567.00,404.50 566.00,405.50 558.00,406.50 554.00,408.50 550.00,408.50 549.00,409.50 546.00,409.50 545.00,410.50 541.00,410.50 540.00,411.50 538.00,411.50 537.00,412.50 535.00,412.50 531.00,414.50 523.00,415.50 522.00,416.50 519.00,416.50 515.00,418.50 508.00,419.50 507.00,420.50 505.00,420.50 504.00,421.50 502.00,421.50 501.00,422.50 499.00,422.50 498.00,423.50 496.00,423.50 492.00,425.50 489.00,425.50 486.00,427.50 484.00,427.50 483.00,428.50 475.00,430.50 472.00,432.50 467.00,433.50 464.00,435.50 459.00,436.50 454.00,439.50 452.00,439.50 449.50,442.00 452.00,442.50 453.00,441.50 457.00,441.50 458.00,440.50 461.00,440.50 462.00,439.50 468.00,438.50 472.00,436.50 475.00,436.50 476.00,435.50 479.00,435.50 480.00,434.50 483.00,434.50 484.00,433.50 487.00,433.50 488.00,432.50 491.00,432.50 492.00,431.50 495.00,431.50 496.00,430.50 500.00,430.50 501.00,429.50 506.00,429.50 507.00,428.50 511.00,428.50 512.00,427.50 516.00,427.50 517.00,426.50 521.00,426.50 522.00,425.50 528.00,425.50 529.00,424.50 539.00,423.50 540.00,422.50 554.00,421.50 555.00,420.50 562.00,420.50 563.00,419.50 580.00,419.50 581.00,418.50 588.00,418.50 589.00,419.50 604.00,419.50 605.00,420.50 614.00,420.50 615.00,421.50 622.00,421.50 623.00,422.50 634.00,423.50 635.50,425.00 635.00,425.50 621.00,426.50 620.00,427.50 615.00,427.50 614.00,428.50 610.00,428.50 609.00,429.50 605.00,429.50 604.00,430.50 600.00,430.50 599.00,431.50 596.00,431.50 595.00,432.50 587.00,433.50 583.00,435.50 576.00,436.50 572.00,438.50 569.00,438.50 568.00,439.50 565.00,439.50 564.00,440.50 562.00,440.50 558.00,442.50 555.00,442.50 551.00,444.50 548.00,444.50 547.00,445.50 545.00,445.50 544.00,446.50 542.00,446.50 541.00,447.50 539.00,447.50 538.00,448.50 536.00,448.50 535.00,449.50 533.00,449.50 532.00,450.50 530.00,450.50 529.00,451.50 527.00,451.50 526.00,452.50 518.00,454.50 515.00,456.50 510.00,457.50 507.00,459.50 502.00,460.50 490.00,466.50 488.00,466.50 485.00,468.50 483.00,468.50 477.00,471.50 475.00,473.50 471.00,474.50 454.00,483.50 452.00,483.50 450.00,485.50 437.00,491.50 435.00,493.50 421.00,500.50 411.00,507.50 400.00,512.50 395.00,516.50 377.00,525.50 375.00,525.50 372.00,527.50 369.00,527.50 368.00,528.50 365.00,528.50 364.00,529.50 360.00,529.50 359.00,530.50 354.00,530.50 353.00,531.50 325.00,531.50 324.00,530.50 317.00,530.50 316.00,529.50 310.00,529.50 309.00,528.50 305.00,528.50 304.00,527.50 301.00,527.50 300.00,526.50 292.00,525.50 291.00,524.50 289.00,524.50 285.00,522.50 282.00,522.50 275.00,518.50 273.00,518.50 266.00,514.50 264.00,514.50 260.00,512.50 258.00,510.50 253.00,508.50 251.00,506.50 248.00,505.50 240.50,498.00 241.00,497.50 244.00,497.50 245.00,498.50 248.00,498.50 249.00,499.50 252.00,499.50 253.00,500.50 259.00,500.50 260.00,501.50 298.00,501.50 299.00,500.50 306.00,500.50 307.00,499.50 313.00,499.50 314.00,498.50 318.00,498.50 319.00,497.50 322.00,497.50 323.00,496.50 326.00,496.50 327.00,495.50 333.00,494.50 336.50,492.00 333.00,491.50 332.00,492.50 317.00,492.50 316.00,493.50 296.00,493.50 295.00,492.50 284.00,492.50 283.00,491.50 270.00,490.50 269.00,489.50 266.00,489.50 265.00,488.50 258.00,487.50 257.00,486.50 249.00,484.50 243.00,481.50 237.00,476.50 236.00,476.50 231.50,472.00 231.50,471.00 z" fill="black" /><path d="M 798.50,396.00 797.00,396.50 795.00,395.50 792.00,392.50 791.00,392.50 783.00,386.50 771.00,380.50 769.00,380.50 762.00,376.50 759.00,376.50 758.00,375.50 756.00,375.50 755.00,374.50 753.00,374.50 749.00,372.50 742.00,371.50 739.00,369.50 736.00,369.50 732.00,367.50 728.00,367.50 727.00,366.50 722.00,365.50 719.00,363.50 714.00,362.50 702.00,356.50 700.00,354.50 697.00,353.50 694.00,350.50 693.00,350.50 682.50,339.00 681.50,336.00 683.00,335.50 685.00,337.50 705.00,347.50 707.00,347.50 710.00,349.50 712.00,349.50 713.00,350.50 715.00,350.50 719.00,352.50 722.00,352.50 723.00,353.50 729.00,354.50 730.00,355.50 736.00,355.50 737.00,356.50 743.00,356.50 744.00,357.50 750.00,357.50 751.00,358.50 759.00,358.50 760.00,359.50 765.00,359.50 766.00,360.50 771.00,361.50 774.00,363.50 776.00,363.50 782.00,366.50 784.00,368.50 785.00,368.50 792.50,377.00 794.50,381.00 794.50,383.00 796.50,386.00 797.50,391.00 798.50,392.00 z" fill="black" /><path d="M 786.50,427.00 785.00,428.50 768.00,428.50 767.00,427.50 761.00,426.50 757.00,423.50 756.00,423.50 748.50,416.00 744.50,408.00 744.50,406.00 742.50,403.00 742.50,401.00 740.50,398.00 739.50,393.00 749.00,392.50 750.00,393.50 755.00,393.50 756.00,394.50 760.00,394.50 761.00,395.50 763.00,395.50 769.00,398.50 776.50,405.00 777.50,408.00 779.50,410.00 784.50,420.00 784.50,422.00 785.50,423.00 z" fill="black" /><path d="M 927.50,494.00 926.00,494.50 923.00,491.50 916.00,487.50 913.00,484.50 895.00,475.50 892.00,475.50 886.00,472.50 884.00,472.50 880.00,470.50 877.00,470.50 876.00,469.50 874.00,469.50 873.00,468.50 871.00,468.50 870.00,467.50 862.00,465.50 859.00,463.50 854.00,462.50 842.00,456.50 840.00,454.50 839.00,454.50 827.50,443.00 821.50,432.00 821.50,430.00 819.50,426.00 819.50,423.00 820.00,422.50 829.00,431.50 830.00,431.50 833.00,434.50 854.00,446.50 856.00,446.50 861.00,449.50 864.00,449.50 868.00,451.50 871.00,451.50 872.00,452.50 875.00,452.50 876.00,453.50 880.00,453.50 881.00,454.50 885.00,454.50 886.00,455.50 889.00,455.50 890.00,456.50 897.00,457.50 910.00,463.50 914.00,467.50 915.00,467.50 921.50,475.00 924.50,481.00 925.50,486.00 926.50,487.00 z" fill="black" /><path d="M 895.50,566.00 893.00,567.50 883.00,568.50 882.00,569.50 878.00,569.50 877.00,570.50 868.00,570.50 867.00,571.50 854.00,571.50 853.00,570.50 848.00,570.50 847.00,569.50 840.00,568.50 836.00,566.50 831.00,562.50 826.00,560.50 824.00,558.50 820.00,556.50 816.00,552.50 810.00,549.50 808.00,549.50 804.00,547.50 801.00,547.50 800.00,546.50 797.00,546.50 796.00,545.50 791.00,545.50 790.00,544.50 783.00,544.50 782.00,543.50 685.00,543.50 684.00,542.50 674.00,541.50 673.00,540.50 665.00,538.50 653.00,532.50 651.00,530.50 648.00,529.50 646.00,527.50 642.00,525.50 635.00,519.50 634.00,519.50 618.50,504.00 618.50,503.00 615.50,500.00 615.50,499.00 608.50,489.00 608.50,487.00 605.50,482.00 605.50,480.00 602.50,475.00 602.50,473.00 603.00,472.50 611.00,481.50 612.00,481.50 616.00,485.50 617.00,485.50 626.00,494.50 627.00,494.50 629.00,496.50 632.00,497.50 634.00,499.50 644.00,504.50 646.00,504.50 647.00,505.50 649.00,505.50 650.00,506.50 652.00,506.50 656.00,508.50 660.00,508.50 661.00,509.50 668.00,509.50 669.00,510.50 686.00,510.50 687.00,511.50 719.00,511.50 720.00,512.50 732.00,512.50 733.00,513.50 738.00,513.50 739.00,514.50 745.00,514.50 746.00,515.50 755.00,516.50 756.00,517.50 759.00,517.50 760.00,518.50 767.00,519.50 771.00,521.50 774.00,521.50 775.00,522.50 780.00,523.50 783.00,525.50 785.00,525.50 786.00,526.50 788.00,526.50 789.00,527.50 791.00,527.50 792.00,528.50 794.00,528.50 798.00,530.50 801.00,530.50 804.00,532.50 809.00,533.50 816.00,537.50 818.00,537.50 823.00,540.50 825.00,540.50 827.00,542.50 837.00,547.50 839.00,547.50 843.00,549.50 850.00,554.50 862.00,560.50 868.00,561.50 869.00,562.50 872.00,562.50 873.00,563.50 878.00,563.50 879.00,564.50 885.00,564.50 886.00,565.50 z" fill="black" /><path d="M 270.50,559.00 298.00,558.50 299.00,557.50 310.00,557.50 311.00,556.50 318.00,556.50 319.00,555.50 325.00,555.50 326.00,554.50 332.00,554.50 333.00,553.50 342.00,552.50 343.00,551.50 346.00,551.50 347.00,550.50 350.00,550.50 351.00,549.50 358.00,548.50 362.00,546.50 365.00,546.50 368.00,544.50 370.00,544.50 373.00,542.50 375.00,542.50 378.00,540.50 380.00,540.50 394.00,533.50 396.00,531.50 407.00,526.50 409.00,524.50 414.00,522.50 416.00,520.50 428.00,514.50 438.00,507.50 464.00,494.50 469.00,493.50 472.00,491.50 474.00,491.50 477.00,489.50 480.00,489.50 484.00,487.50 487.00,487.50 488.00,486.50 491.00,486.50 492.00,485.50 496.00,485.50 497.00,484.50 502.00,484.50 503.00,483.50 510.00,483.50 511.00,482.50 532.00,482.50 533.00,483.50 539.00,483.50 540.00,484.50 543.00,484.50 546.00,486.50 548.00,486.50 549.00,487.50 557.00,489.50 560.00,491.50 568.00,493.50 580.00,499.50 582.00,499.50 585.00,501.50 587.00,501.50 595.00,505.50 597.00,507.50 600.00,508.50 609.50,516.00 607.00,516.50 606.00,515.50 603.00,515.50 602.00,514.50 598.00,514.50 597.00,513.50 594.00,513.50 593.00,512.50 588.00,512.50 587.00,511.50 581.00,511.50 580.00,510.50 556.00,510.50 555.00,511.50 546.00,511.50 545.00,512.50 542.00,512.50 541.00,513.50 533.00,514.50 529.00,516.50 522.00,517.50 521.00,518.50 515.00,519.50 511.00,521.50 508.00,521.50 505.00,523.50 503.00,523.50 502.00,524.50 500.00,524.50 499.00,525.50 491.00,527.50 488.00,529.50 480.00,531.50 473.00,535.50 471.00,535.50 470.00,536.50 468.00,536.50 464.00,538.50 461.00,538.50 453.00,542.50 450.00,542.50 444.00,545.50 438.00,546.50 437.00,547.50 435.00,547.50 434.00,548.50 432.00,548.50 431.00,549.50 429.00,549.50 425.00,551.50 422.00,551.50 418.00,553.50 410.00,554.50 409.00,555.50 406.00,555.50 405.00,556.50 402.00,556.50 401.00,557.50 398.00,557.50 397.00,558.50 391.00,558.50 390.00,559.50 386.00,559.50 385.00,560.50 379.00,560.50 378.00,561.50 373.00,561.50 372.00,562.50 365.00,562.50 364.00,563.50 353.00,563.50 352.00,564.50 331.00,564.50 330.00,565.50 314.00,565.50 313.00,564.50 300.00,564.50 299.00,563.50 283.00,562.50 282.00,561.50 277.00,561.50 276.00,560.50 273.00,560.50 z" fill="black" /><path d="M 916.00,520.50 914.00,521.50 909.00,521.50 908.00,522.50 906.00,521.50 901.00,521.50 896.50,517.00 893.50,511.00 893.50,509.00 892.50,508.00 891.50,498.00 890.50,497.00 891.00,489.50 893.00,489.50 901.00,493.50 903.00,495.50 906.00,496.50 910.50,501.00 910.50,502.00 913.50,506.00 913.50,508.00 915.50,512.00 915.50,516.00 916.50,517.00 z" fill="black" /></g></svg>